<svg width="24" height="24" viewBox="0 0 24 24" fill="none" xmlns="http://www.w3.org/2000/svg">
<path d="M3 2C3.55228 2 4 2.44772 4 3V21C4 21.5523 3.55228 22 3 22C2.44772 22 2 21.5523 2 21V3.00001C2 2.44772 2.44772 2 3 2Z" fill="black"/>
<path fill-rule="evenodd" clip-rule="evenodd" d="M22 5.99998C22 4.89541 21.1046 3.99998 20 3.99998H8C6.89543 3.99998 6 4.89541 6 5.99998V8.99998C6 10.1045 6.89543 11 8 11H20C21.1046 11 22 10.1045 22 8.99998V5.99998ZM20 5.99998V8.99998H8V5.99998H20Z" fill="black"/>
<path fill-rule="evenodd" clip-rule="evenodd" d="M18 15C18 13.8954 17.1046 13 16 13H8C6.89543 13 6 13.8954 6 15V18C6 19.1045 6.89543 20 8 20H16C17.1046 20 18 19.1045 18 18V15ZM16 15V18H8V15H16Z" fill="black"/>
</svg>
