<svg width="24" height="24" viewBox="0 0 24 24" fill="none" xmlns="http://www.w3.org/2000/svg">
<path d="M21 4C21.5523 4 22 3.55228 22 3C22 2.44772 21.5523 2 21 2H3C2.44772 2 2 2.44772 2 3C2 3.55228 2.44772 4 3 4H21Z" fill="black"/>
<path fill-rule="evenodd" clip-rule="evenodd" d="M6.00005 22C4.89548 22 4.00005 21.1046 4.00005 20V8C4.00005 6.89543 4.89548 6 6.00005 6H9.00005C10.1046 6 11 6.89543 11 8V20C11 21.1046 10.1046 22 9.00005 22H6.00005ZM6.00005 20L6.00005 8H9.00005V20H6.00005Z" fill="black"/>
<path fill-rule="evenodd" clip-rule="evenodd" d="M15 18C13.8955 18 13 17.1046 13 16V8C13 6.89543 13.8955 6 15 6H18C19.1046 6 20.0001 6.89543 20.0001 8V16C20.0001 17.1046 19.1046 18 18 18H15ZM15 16H18V8H15V16Z" fill="black"/>
</svg>
