<svg width="24" height="24" viewBox="0 0 24 24" fill="none" xmlns="http://www.w3.org/2000/svg">
<path fill-rule="evenodd" clip-rule="evenodd" d="M2 6C2 4.89543 2.89543 4 4 4H16C17.1046 4 18 4.89543 18 6V9C18 10.1046 17.1046 11 16 11H4C2.89543 11 2 10.1046 2 9V6ZM4 6H16V9H4V6Z" fill="black"/>
<path fill-rule="evenodd" clip-rule="evenodd" d="M6 15C6 13.8954 6.89543 13 8 13H16C17.1046 13 18 13.8954 18 15V18C18 19.1046 17.1046 20 16 20H8C6.89543 20 6 19.1046 6 18V15ZM8 15V18H16V15H8Z" fill="black"/>
<path d="M21 22C20.4477 22 20 21.5523 20 21V3C20 2.44772 20.4477 2 21 2C21.5523 2 22 2.44772 22 3V21C22 21.5523 21.5523 22 21 22Z" fill="black"/>
</svg>
