<svg width="24" height="24" viewBox="0 0 24 24" fill="none" xmlns="http://www.w3.org/2000/svg">
<path fill-rule="evenodd" clip-rule="evenodd" d="M6 2C4.89543 2 4 2.89543 4 4V16C4 17.1046 4.89543 18 6 18H9C10.1046 18 11 17.1046 11 16V4C11 2.89543 10.1046 2 9 2H6ZM6 4H9V16H6V4Z" fill="black"/>
<path d="M3 20C2.44772 20 2 20.4477 2 21C2 21.5523 2.44772 22 3 22H21C21.5523 22 22 21.5523 22 21C22 20.4477 21.5523 20 21 20H3Z" fill="black"/>
<path fill-rule="evenodd" clip-rule="evenodd" d="M15 6C13.8954 6 13 6.89543 13 8V16C13 17.1046 13.8954 18 15 18H18C19.1046 18 20 17.1046 20 16V8C20 6.89543 19.1046 6 18 6H15ZM15 8H18V16H15V8Z" fill="black"/>
</svg>
