<svg width="24" height="24" viewBox="0 0 24 24" fill="none" xmlns="http://www.w3.org/2000/svg">
<path fill-rule="evenodd" clip-rule="evenodd" d="M12 2C12.5523 2 13 2.44772 13 3V4H19C20.1046 4 21 4.89543 21 6V9C21 10.1046 20.1046 11 19 11H13V13H16C17.1046 13 18 13.8954 18 15V18C18 19.1046 17.1046 20 16 20H13V21C13 21.5523 12.5523 22 12 22C11.4477 22 11 21.5523 11 21V20H8C6.89543 20 6 19.1046 6 18V15C6 13.8954 6.89543 13 8 13H11V11H5C3.89543 11 3 10.1046 3 9V6C3 4.89543 3.89543 4 5 4H11V3C11 2.44772 11.4477 2 12 2ZM19 6V9H5V6H19ZM16 15V18H8V15H16Z" fill="black"/>
</svg>
