<svg width="24" height="24" viewBox="0 0 24 24" fill="none" xmlns="http://www.w3.org/2000/svg">
<path fill-rule="evenodd" clip-rule="evenodd" d="M4 5C4 3.89543 4.89543 3 6 3H9C10.1046 3 11 3.89543 11 5V11H13V8C13 6.89543 13.8954 6 15 6H18C19.1046 6 20 6.89543 20 8V11H21C21.5523 11 22 11.4477 22 12C22 12.5523 21.5523 13 21 13H20V16C20 17.1046 19.1046 18 18 18H15C13.8954 18 13 17.1046 13 16V13H11V19C11 20.1046 10.1046 21 9 21H6C4.89543 21 4 20.1046 4 19V13H3C2.44772 13 2 12.5523 2 12C2 11.4477 2.44772 11 3 11H4V5ZM6 5H9V19H6V5ZM15 8H18V16H15V8Z" fill="black"/>
</svg>
