<svg width="24" height="24" viewBox="0 0 24 24" fill="none" xmlns="http://www.w3.org/2000/svg">
<path fill-rule="evenodd" clip-rule="evenodd" d="M14.3158 4C10.2754 4 7 7.27539 7 11.3158C7 15.3562 10.2754 18.6316 14.3158 18.6316C15.975 18.6316 17.5063 18.0783 18.7334 17.1476L21.8358 20.25C22.2263 20.6405 22.8595 20.6405 23.25 20.25C23.6405 19.8595 23.6405 19.2263 23.25 18.8358L20.1476 15.7334C21.0783 14.5063 21.6316 12.975 21.6316 11.3158C21.6316 7.27539 18.3562 4 14.3158 4ZM9 11.3158C9 8.37996 11.38 6 14.3158 6C17.2516 6 19.6316 8.37996 19.6316 11.3158C19.6316 12.784 19.0377 14.1116 18.0746 15.0746C17.1116 16.0377 15.784 16.6316 14.3158 16.6316C11.38 16.6316 9 14.2516 9 11.3158Z" fill="black"/>
<path d="M0 16.5C0 15.9477 0.447715 15.5 1 15.5H5C5.55229 15.5 6 15.9477 6 16.5C6 17.0523 5.55229 17.5 5 17.5H1C0.447715 17.5 0 17.0523 0 16.5Z" fill="black"/>
<path d="M0 11.5C0 10.9477 0.447715 10.5 1 10.5H4C4.55229 10.5 5 10.9477 5 11.5C5 12.0523 4.55229 12.5 4 12.5H1C0.447715 12.5 0 12.0523 0 11.5Z" fill="black"/>
<path d="M0 6.5C0 5.94772 0.447715 5.5 1 5.5H5C5.55229 5.5 6 5.94772 6 6.5C6 7.05229 5.55229 7.5 5 7.5H1C0.447715 7.5 0 7.05229 0 6.5Z" fill="black"/>
</svg>
