<svg width="24" height="24" viewBox="0 0 24 24" fill="none" xmlns="http://www.w3.org/2000/svg">
<path d="M10.75 9.25C10.75 10.0784 10.0784 10.75 9.25 10.75C8.42157 10.75 7.75 10.0784 7.75 9.25C7.75 8.42157 8.42157 7.75 9.25 7.75C10.0784 7.75 10.75 8.42157 10.75 9.25Z" fill="black"/>
<path d="M14.75 16.25C15.5784 16.25 16.25 15.5784 16.25 14.75C16.25 13.9216 15.5784 13.25 14.75 13.25C13.9216 13.25 13.25 13.9216 13.25 14.75C13.25 15.5784 13.9216 16.25 14.75 16.25Z" fill="black"/>
<path d="M15.55 8.45C15.9405 8.84053 15.9405 9.47369 15.55 9.86422L9.86422 15.55C9.47369 15.9405 8.84053 15.9405 8.45 15.55C8.05948 15.1595 8.05948 14.5263 8.45 14.1358L14.1358 8.45C14.5263 8.05948 15.1595 8.05948 15.55 8.45Z" fill="black"/>
<path fill-rule="evenodd" clip-rule="evenodd" d="M12 22C17.5228 22 22 17.5228 22 12C22 6.47715 17.5228 2 12 2C6.47715 2 2 6.47715 2 12C2 17.5228 6.47715 22 12 22ZM12 20C16.4183 20 20 16.4183 20 12C20 7.58172 16.4183 4 12 4C7.58172 4 4 7.58172 4 12C4 16.4183 7.58172 20 12 20Z" fill="black"/>
</svg>
