<svg width="24" height="24" viewBox="0 0 24 24" fill="none" xmlns="http://www.w3.org/2000/svg">
<path d="M15.5907 10.0001L13.005 12.5858V3.00006C13.005 2.96554 13.0032 2.93143 12.9998 2.89782C12.9486 2.39356 12.5227 2.00006 12.005 2.00006C11.4527 2.00006 11.005 2.44778 11.005 3.00006V12.5858L8.41917 10C8.02865 9.60951 7.39548 9.60951 7.00496 10C6.61443 10.3906 6.61443 11.0237 7.00496 11.4143L11.2979 15.7072C11.4854 15.8947 11.7398 16.0001 12.005 16.0001C12.2702 16.0001 12.5245 15.8947 12.7121 15.7072L17.005 11.4143C17.0538 11.3655 17.0965 11.3129 17.1331 11.2574C17.3894 10.8693 17.3467 10.3418 17.005 10.0001C16.6144 9.60955 15.9813 9.60955 15.5907 10.0001Z" fill="black"/>
<path d="M4.00488 14.0001C4.55717 14.0001 5.00488 14.4478 5.00488 15.0001V19.0001H19.0049V15.0001C19.0049 14.4478 19.4526 14.0001 20.0049 14.0001C20.5572 14.0001 21.0049 14.4478 21.0049 15.0001V19.0001C21.0049 20.1047 20.1095 21.0001 19.0049 21.0001H5.00488C3.90031 21.0001 3.00488 20.1047 3.00488 19.0001V15.0001C3.00488 14.4478 3.4526 14.0001 4.00488 14.0001Z" fill="black"/>
</svg>
