<svg width="24" height="24" viewBox="0 0 24 24" fill="none" xmlns="http://www.w3.org/2000/svg">
<path fill-rule="evenodd" clip-rule="evenodd" d="M7.58579 11.9142C7.21071 12.2892 7 12.7979 7 13.3284V16C7 16.5522 7.44772 17 8 17H10.6716C11.202 17 11.7107 16.7892 12.0858 16.4142L21.5858 6.91416C22.3668 6.13311 22.3668 4.86678 21.5858 4.08573L19.9142 2.41416C19.1332 1.63311 17.8668 1.63311 17.0858 2.41416L7.58579 11.9142ZM10.6716 15H9L9 13.3284L18.5 3.82837L20.1716 5.49995L10.6716 15Z" fill="black"/>
<path d="M10 3.99994C10 4.55223 9.55229 4.99995 9 4.99995H4L4 20H19V15C19 14.4477 19.4477 14 20 14C20.5523 14 21 14.4477 21 15V20C21 21.1045 20.1046 22 19 22H4C2.89543 22 2 21.1045 2 20V4.99995C2 3.89538 2.89543 2.99994 4 2.99994H9C9.55229 2.99994 10 3.44766 10 3.99994Z" fill="black"/>
</svg>
