<svg width="24" height="24" viewBox="0 0 24 24" fill="none" xmlns="http://www.w3.org/2000/svg">
<path fill-rule="evenodd" clip-rule="evenodd" d="M8.02548 6.47457C7.24444 7.25561 7.24444 8.52194 8.02548 9.30299L8.61127 9.88878L4.17157 14.3285C3.42143 15.0786 3 16.096 3 17.1569V20.0001C3 20.5523 3.44772 21.0001 4 21.0001H6.84315C7.90401 21.0001 8.92143 20.5786 9.67157 19.8285L14.1113 15.3888L14.6971 15.9746C15.4781 16.7556 16.7444 16.7556 17.5255 15.9746L18.8914 14.6086C19.6722 13.8279 19.6725 12.5622 18.8923 11.7811L18.3056 11.1944L20.25 9.25005C21.7688 7.73126 21.7688 5.26883 20.25 3.75005C18.7312 2.23127 16.2688 2.23127 14.75 3.75005L12.8056 5.69441L12.2199 5.10863C11.4388 4.32758 10.1725 4.32758 9.39142 5.10863L8.02548 6.47457ZM12.0985 7.81573L10.8056 6.52284L9.4397 7.88878L16.1113 14.5604L17.4772 13.1944L16.1843 11.9015C15.7938 11.511 15.7938 10.8778 16.1843 10.4873L18.8358 7.83583C19.5735 7.0981 19.5735 5.902 18.8358 5.16426C18.0981 4.42653 16.902 4.42653 16.1642 5.16426L13.5127 7.81574C13.1222 8.20626 12.4891 8.20626 12.0985 7.81573ZM12.6971 13.9746L10.0255 11.303L5.58579 15.7427C5.21071 16.1178 5 16.6265 5 17.1569V19.0001H6.84315C7.37358 19.0001 7.88229 18.7893 8.25736 18.4143L12.6971 13.9746Z" fill="black"/>
</svg>
