<svg width="24" height="24" viewBox="0 0 24 24" fill="none" xmlns="http://www.w3.org/2000/svg">
<path d="M11.9999 16.5C11.4477 16.5 10.9999 16.0523 10.9999 15.5V14H9.49994C8.94766 14 8.49994 13.5523 8.49994 13C8.49994 12.4477 8.94766 12 9.49994 12H10.9999V10.5C10.9999 9.9477 11.4477 9.49999 11.9999 9.49999C12.5522 9.49999 12.9999 9.9477 12.9999 10.5V12H14.4999C14.5345 12 14.5686 12.0017 14.6022 12.0052C15.1064 12.0564 15.4999 12.4822 15.4999 13C15.4999 13.5523 15.0522 14 14.4999 14H12.9999V15.5C12.9999 16.0523 12.5522 16.5 11.9999 16.5Z" fill="black"/>
<path fill-rule="evenodd" clip-rule="evenodd" d="M19.4142 6.4142C19.7892 6.78927 19.9999 7.29798 19.9999 7.82841L19.9999 20C19.9999 21.1046 19.1045 22 17.9999 22H5.99994C4.89537 22 3.99994 21.1046 3.99994 20L3.99994 3.99998C3.99994 2.89541 4.89537 1.99998 5.99994 1.99998L14.1715 1.99998C14.7019 1.99998 15.2107 2.21069 15.5857 2.58576L19.4142 6.4142ZM17.9999 7.82841L17.9999 20H5.99994L5.99994 3.99998L14.1715 3.99998L17.9999 7.82841Z" fill="black"/>
</svg>
