<svg width="24" height="24" viewBox="0 0 24 24" fill="none" xmlns="http://www.w3.org/2000/svg">
<path d="M14.0009 14C14.0009 14.5523 13.5532 15 13.0009 15L9.00092 15C8.44863 15 8.00092 14.5523 8.00092 14C8.00092 13.4477 8.44863 13 9.00092 13H13.0009C13.5532 13 14.0009 13.4477 14.0009 14Z" fill="black"/>
<path d="M16.0009 9.99999C16.0009 10.5523 15.5532 11 15.0009 11L9.00092 11C8.44863 11 8.00092 10.5523 8.00092 9.99999C8.00092 9.4477 8.44863 8.99999 9.00092 8.99999H15.0009C15.5532 8.99999 16.0009 9.4477 16.0009 9.99999Z" fill="black"/>
<path fill-rule="evenodd" clip-rule="evenodd" d="M19.4151 6.4142C19.7902 6.78927 20.0009 7.29798 20.0009 7.82841L20.0009 20C20.0009 21.1046 19.1055 22 18.0009 22H6.00092C4.89635 22 4.00092 21.1046 4.00092 20L4.00092 3.99998C4.00092 2.89541 4.89635 1.99998 6.00092 1.99998L14.1725 1.99998C14.7029 1.99998 15.2116 2.21069 15.5867 2.58576L19.4151 6.4142ZM18.0009 7.82841L18.0009 20H6.00092L6.00092 3.99998L14.1725 3.99998L18.0009 7.82841Z" fill="black"/>
</svg>
