<svg width="24" height="24" viewBox="0 0 24 24" fill="none" xmlns="http://www.w3.org/2000/svg">
<path fill-rule="evenodd" clip-rule="evenodd" d="M2 5C2 3.89543 2.89543 3 4 3H20C21.1046 3 22 3.89543 22 5V5.24853C22 5.73298 21.8242 6.20096 21.5052 6.56554L15.4948 13.4345C15.1758 13.799 15 14.267 15 14.7515V20.5585C15 21.4193 14.4491 22.1836 13.6325 22.4559L10.3162 23.5613C9.6687 23.7771 9 23.2951 9 22.6126V14.7515C9 14.267 8.82416 13.799 8.50515 13.4345L2.49485 6.56554C2.17584 6.20096 2 5.73298 2 5.24853V5ZM4 5.24853L4 5H20V5.24853L13.9897 12.1175C13.3517 12.8466 13 13.7826 13 14.7515V20.5585L11 21.2252V14.7515C11 13.7826 10.6483 12.8466 10.0103 12.1175L4 5.24853Z" fill="black"/>
</svg>
