<svg width="24" height="24" viewBox="0 0 24 24" fill="none" xmlns="http://www.w3.org/2000/svg">
<path d="M16.0088 8.41426L18.5946 11H9.00879C5.1428 11 2.00879 14.134 2.00879 18C2.00879 18.5523 2.4565 19 3.00879 19C3.56107 19 4.00879 18.5523 4.00879 18C4.00879 15.2386 6.24736 13 9.00879 13H18.5946L16.0088 15.5858C15.6183 15.9763 15.6183 16.6095 16.0088 17C16.3993 17.3905 17.0325 17.3905 17.423 17L21.7159 12.7071C22.1064 12.3166 22.1064 11.6834 21.7159 11.2929L17.423 7.00005C17.0325 6.60952 16.3993 6.60952 16.0088 7.00005C15.96 7.04886 15.9173 7.10147 15.8806 7.15692C15.6244 7.54507 15.6671 8.07255 16.0088 8.41426Z" fill="black"/>
</svg>
