<svg width="24" height="24" viewBox="0 0 24 24" fill="none" xmlns="http://www.w3.org/2000/svg">
<path d="M21 9C21 9.55229 20.5523 10 20 10C19.4477 10 19 9.55229 19 9V5H15C14.4477 5 14 4.55229 14 4C14 3.44772 14.4477 3 15 3H20C20.5523 3 21 3.44772 21 4V9Z" fill="black"/>
<path d="M5 15C5 14.4477 4.55229 14 4 14C3.44772 14 3 14.4477 3 15L3 20C3 20.5523 3.44772 21 4 21H9C9.55229 21 10 20.5523 10 20C10 19.4477 9.55229 19 9 19H5V15Z" fill="black"/>
<path d="M19 15C19 14.4477 19.4477 14 20 14C20.5523 14 21 14.4477 21 15V20C21 20.5523 20.5523 21 20 21H15C14.4477 21 14 20.5523 14 20C14 19.4477 14.4477 19 15 19H19V15Z" fill="black"/>
<path d="M4 10C4.55229 10 5 9.55229 5 9V5H9C9.55229 5 10 4.55229 10 4C10 3.44772 9.55229 3 9 3H4C3.44772 3 3 3.44772 3 4L3 9C3 9.55229 3.44772 10 4 10Z" fill="black"/>
</svg>
