<svg width="24" height="24" viewBox="0 0 24 24" fill="none" xmlns="http://www.w3.org/2000/svg">
<path d="M3 9C3 8.44772 3.44772 8 4 8H8L8 4C8 3.44772 8.44772 3 9 3C9.55229 3 10 3.44772 10 4L10 9C10 9.55229 9.55228 10 9 10H4C3.44772 10 3 9.55229 3 9Z" fill="black"/>
<path d="M20 8C20.5523 8 21 8.44772 21 9C21 9.55229 20.5523 10 20 10H15C14.4477 10 14 9.55229 14 9L14 4C14 3.44772 14.4477 3 15 3C15.5523 3 16 3.44772 16 4V8H20Z" fill="black"/>
<path d="M20 16C20.5523 16 21 15.5523 21 15C21 14.4477 20.5523 14 20 14H15C14.4477 14 14 14.4477 14 15L14 20C14 20.5523 14.4477 21 15 21C15.5523 21 16 20.5523 16 20V16H20Z" fill="black"/>
<path d="M4 16C3.44772 16 3 15.5523 3 15C3 14.4477 3.44772 14 4 14H9C9.55228 14 10 14.4477 10 15L10 20C10 20.5523 9.55229 21 9 21C8.44772 21 8 20.5523 8 20L8 16H4Z" fill="black"/>
</svg>
