<svg width="24" height="24" viewBox="0 0 24 24" fill="none" xmlns="http://www.w3.org/2000/svg">
<path fill-rule="evenodd" clip-rule="evenodd" d="M13.212 16.3266C12.496 16.8721 11.5038 16.8721 10.7878 16.3266L3.5879 10.8409C2.53735 10.0405 2.53735 8.45961 3.5879 7.65919L10.7878 2.17354C11.5038 1.62803 12.496 1.62803 13.212 2.17354L20.4119 7.65919C21.4624 8.45961 21.4624 10.0405 20.4119 10.8409L13.212 16.3266ZM11.9999 14.7357L19.1998 9.25005L11.9999 3.76441L4.79999 9.25005L11.9999 14.7357Z" fill="black"/>
<path d="M19.7623 14.3359C20.1176 14.0651 20.61 14.0652 20.9652 14.3361C21.4859 14.7332 21.4859 15.517 20.9652 15.914L13.2126 21.8254C12.4964 22.3715 11.5034 22.3715 10.7872 21.8254L3.03462 15.914C2.51385 15.517 2.51385 14.7332 3.03462 14.3361C3.07902 14.3022 3.12556 14.2726 3.17371 14.2472C3.51077 14.0694 3.92662 14.099 4.23751 14.3359L11.9999 20.2501L19.7623 14.3359Z" fill="black"/>
</svg>
