<svg width="24" height="24" viewBox="0 0 24 24" fill="none" xmlns="http://www.w3.org/2000/svg">
<path fill-rule="evenodd" clip-rule="evenodd" d="M9.7549 23.08C9.44197 23.2689 8.9998 23.0545 8.9998 22.6483V14H4.0869C3.65973 14 3.42927 13.4989 3.70728 13.1746L14.1202 1.02619C14.1579 0.982135 14.2 0.946924 14.2447 0.919942C14.5576 0.731067 14.9998 0.945409 14.9998 1.35159V9.99996H19.9127C20.3399 9.99996 20.5703 10.501 20.2923 10.8254L9.87943 22.9737C9.84167 23.0178 9.7996 23.053 9.7549 23.08ZM10.9946 12.8977C10.9434 12.3935 10.5176 12 9.9998 12H7.34824L12.9998 5.40648V11C12.9998 11.5522 13.4475 12 13.9998 12H16.6514L10.9998 18.5935V13C10.9998 12.9654 10.9981 12.9313 10.9946 12.8977Z" fill="black"/>
</svg>
