<svg width="24" height="24" viewBox="0 0 24 24" fill="none" xmlns="http://www.w3.org/2000/svg">
<g clip-path="url(#clip0_27_1898)">
<path d="M10 7C10 7.55229 9.55229 8 9 8H6C3.79086 8 2 9.79086 2 12C2 14.2091 3.79086 16 6 16H9C9.55229 16 10 16.4477 10 17C10 17.5523 9.55229 18 9 18H6C2.68629 18 0 15.3137 0 12C0 8.68629 2.68629 6 6 6H9C9.55229 6 10 6.44772 10 7Z" fill="black"/>
<path d="M15 8C14.4477 8 14 7.55229 14 7C14 6.44772 14.4477 6 15 6H18C21.3137 6 24 8.68629 24 12C24 15.3137 21.3137 18 18 18H15C14.4477 18 14 17.5523 14 17C14 16.4477 14.4477 16 15 16H18C20.2091 16 22 14.2091 22 12C22 9.79086 20.2091 8 18 8H15Z" fill="black"/>
<path d="M18 12C18 12.5523 17.5523 13 17 13H7C6.44772 13 6 12.5523 6 12C6 11.4477 6.44772 11 7 11H17C17.5523 11 18 11.4477 18 12Z" fill="black"/>
</g>
<defs>
<clipPath id="clip0_27_1898">
<rect width="24" height="24" fill="white"/>
</clipPath>
</defs>
</svg>
