<svg width="24" height="24" viewBox="0 0 24 24" fill="none" xmlns="http://www.w3.org/2000/svg">
<path fill-rule="evenodd" clip-rule="evenodd" d="M10 3.21982C10 2.58878 10.5773 2.11548 11.1961 2.23924L19.1961 3.83924C19.6635 3.93273 20 4.34314 20 4.81982V9.78022C20 10.4113 19.4227 10.8846 18.8039 10.7608L12 9.40002V17.5C12 19.9853 9.98528 22 7.5 22C5.01472 22 3 19.9853 3 17.5C3 15.0147 5.01472 13 7.5 13C8.42507 13 9.28495 13.2792 10 13.7578V3.21982ZM18 8.56041L12 7.36041V4.43963L18 5.63963V8.56041ZM10 17.5C10 16.1193 8.88071 15 7.5 15C6.11929 15 5 16.1193 5 17.5C5 18.8807 6.11929 20 7.5 20C8.88071 20 10 18.8807 10 17.5Z" fill="black"/>
</svg>
