<svg width="24" height="24" viewBox="0 0 24 24" fill="none" xmlns="http://www.w3.org/2000/svg">
<path d="M13.0214 7.36786C12.9348 6.54397 12.1967 5.94628 11.3728 6.03287C10.5489 6.11947 9.95124 6.85756 10.0378 7.68145C10.1244 8.50534 10.8625 9.10303 11.6864 9.01644C12.5103 8.92984 13.108 8.19175 13.0214 7.36786Z" fill="black"/>
<path d="M17.1352 9.19787C17.0486 8.37398 16.3105 7.77629 15.4866 7.86288C14.6628 7.94948 14.0651 8.68757 14.1517 9.51146C14.2382 10.3353 14.9763 10.933 15.8002 10.8464C16.6241 10.7599 17.2218 10.0218 17.1352 9.19787Z" fill="black"/>
<path d="M9.37797 10.0132C9.29138 9.1893 8.55328 8.59161 7.72939 8.6782C6.9055 8.7648 6.30781 9.50289 6.3944 10.3268C6.481 11.1507 7.21909 11.7484 8.04298 11.6618C8.86687 11.5752 9.46456 10.8371 9.37797 10.0132Z" fill="black"/>
<path d="M9.84833 14.4885C9.76174 13.6647 9.02364 13.067 8.19976 13.1536C7.37587 13.2401 6.77817 13.9782 6.86477 14.8021C6.95136 15.626 7.68945 16.2237 8.51334 16.1371C9.33723 16.0505 9.93493 15.3124 9.84833 14.4885Z" fill="black"/>
<path fill-rule="evenodd" clip-rule="evenodd" d="M12.0324 2C17.5196 2 22 6.44823 22 11.9354C22 14.6247 19.643 16.7054 16.9745 16.3718L16.2831 16.2854C15.2245 16.1531 14.3902 17.1707 14.7276 18.1828C15.3536 20.0607 13.9295 22 11.95 22C6.49045 22 2 17.5172 2 12.0576C2 6.53477 6.50955 2 12.0324 2ZM16.5312 14.3008L17.2226 14.3873C18.6974 14.5716 20 13.4217 20 11.9354C20 7.56122 16.4234 4 12.0324 4C7.62065 4 4 7.63281 4 12.0576C4 16.4106 7.59302 20 11.95 20C12.5918 20 13.0159 19.3723 12.8302 18.8152C12.0275 16.4072 14.0124 13.986 16.5312 14.3008Z" fill="black"/>
</svg>
