<svg width="24" height="24" viewBox="0 0 24 24" fill="none" xmlns="http://www.w3.org/2000/svg">
<path d="M12.7069 4.22182C13.8785 3.05025 15.778 3.05025 16.9496 4.22182C18.1211 5.39339 18.1211 7.29289 16.9496 8.46446L9.8785 15.5355C9.48797 15.9261 8.85481 15.9261 8.46429 15.5355C8.07376 15.145 8.07376 14.5118 8.46429 14.1213L14.8283 7.75735C15.2188 7.36683 15.2188 6.73366 14.8283 6.34314C14.4377 5.95262 13.8046 5.95262 13.414 6.34314L7.05007 12.7071C5.8785 13.8787 5.8785 15.7782 7.05007 16.9497C8.22164 18.1213 10.1211 18.1213 11.2927 16.9497L18.3638 9.87867C20.3164 7.92605 20.3164 4.76023 18.3638 2.80761C16.4112 0.854984 13.2453 0.854984 11.2927 2.80761L4.22164 9.87867C1.48797 12.6123 1.48797 17.0445 4.22164 19.7782C6.95531 22.5118 11.3875 22.5118 14.1211 19.7782L20.4851 13.4142C20.8756 13.0237 20.8756 12.3905 20.4851 12C20.0946 11.6095 19.4614 11.6095 19.0709 12L12.7069 18.364C10.7543 20.3166 7.58848 20.3166 5.63586 18.364C3.68323 16.4113 3.68323 13.2455 5.63586 11.2929L12.7069 4.22182Z" fill="black"/>
</svg>
