<svg width="24" height="24" viewBox="0 0 24 24" fill="none" xmlns="http://www.w3.org/2000/svg">
<path fill-rule="evenodd" clip-rule="evenodd" d="M11 7.25C11 9.32107 9.32107 11 7.25 11C5.17893 11 3.5 9.32107 3.5 7.25C3.5 5.17893 5.17893 3.5 7.25 3.5C9.32107 3.5 11 5.17893 11 7.25ZM9 7.25C9 8.2165 8.2165 9 7.25 9C6.2835 9 5.5 8.2165 5.5 7.25C5.5 6.2835 6.2835 5.5 7.25 5.5C8.2165 5.5 9 6.2835 9 7.25Z" fill="black"/>
<path fill-rule="evenodd" clip-rule="evenodd" d="M16.75 20.5C18.8211 20.5 20.5 18.8211 20.5 16.75C20.5 14.6789 18.8211 13 16.75 13C14.6789 13 13 14.6789 13 16.75C13 18.8211 14.6789 20.5 16.75 20.5ZM16.75 18.5C17.7165 18.5 18.5 17.7165 18.5 16.75C18.5 15.7835 17.7165 15 16.75 15C15.7835 15 15 15.7835 15 16.75C15 17.7165 15.7835 18.5 16.75 18.5Z" fill="black"/>
<path d="M19.8 4.2C20.1905 4.59053 20.1905 5.22369 19.8 5.61422L5.61419 19.8C5.22367 20.1905 4.5905 20.1905 4.19998 19.8C3.80945 19.4095 3.80945 18.7763 4.19998 18.3858L18.3858 4.2C18.7763 3.80948 19.4095 3.80948 19.8 4.2Z" fill="black"/>
</svg>
