<svg width="24" height="24" viewBox="0 0 24 24" fill="none" xmlns="http://www.w3.org/2000/svg">
<path d="M11.0019 15.5C11.0019 16.0523 11.4496 16.5 12.0019 16.5C12.5541 16.5 13.0019 16.0523 13.0019 15.5V13H15.5019C16.0541 13 16.5019 12.5523 16.5019 12C16.5019 11.4477 16.0541 11 15.5019 11H13.0019V8.5C13.0019 7.94772 12.5541 7.5 12.0019 7.5C11.4496 7.5 11.0019 7.94772 11.0019 8.5V11H8.50186C7.94957 11 7.50186 11.4477 7.50186 12C7.50186 12.5523 7.94957 13 8.50186 13H11.0019V15.5Z" fill="black"/>
<path fill-rule="evenodd" clip-rule="evenodd" d="M7.00195 3C4.79281 3 3.00195 4.79086 3.00195 7V17C3.00195 19.2091 4.79281 21 7.00195 21H17.002C19.2111 21 21.002 19.2091 21.002 17V7C21.002 4.79086 19.2111 3 17.002 3H7.00195ZM19.002 7C19.002 5.89543 18.1065 5 17.002 5H7.00195C5.89738 5 5.00195 5.89543 5.00195 7V17C5.00195 18.1046 5.89738 19 7.00195 19H17.002C18.1065 19 19.002 18.1046 19.002 17V7Z" fill="black"/>
</svg>
