<svg width="24" height="24" viewBox="0 0 24 24" fill="none" xmlns="http://www.w3.org/2000/svg">
<path d="M11.0019 20C11.0019 20.5523 11.4497 21 12.0019 21C12.5542 21 13.0019 20.5523 13.0019 20L13.0019 12.9999L20.0019 12.9999C20.5542 12.9999 21.0019 12.5522 21.0019 11.9999C21.0019 11.4476 20.5542 10.9999 20.0019 10.9999H13.0019L13.0019 4C13.0019 3.44772 12.5542 3 12.0019 3C11.4497 3 11.0019 3.44772 11.0019 4V10.9999H4.00195C3.44967 10.9999 3.00195 11.4476 3.00195 11.9999C3.00195 12.5522 3.44967 12.9999 4.00195 12.9999H11.0019V20Z" fill="black"/>
</svg>
