<svg width="24" height="24" viewBox="0 0 24 24" fill="none" xmlns="http://www.w3.org/2000/svg">
<path d="M12.0049 19C8.13889 19 5.00488 15.866 5.00488 12C5.00488 8.13401 8.13889 5 12.0049 5C14.7973 5 17.2079 6.6351 18.3313 9.0001L15.8049 9.0001C15.2526 9.0001 14.8049 9.44781 14.8049 10.0001C14.8049 10.5524 15.2526 11.0001 15.8049 11.0001L20.8049 11.0001C21.0701 11.0001 21.3245 10.8947 21.512 10.7072C21.6995 10.5197 21.8049 10.2653 21.8049 10.0001V5.0001C21.8049 4.44781 21.3572 4.0001 20.8049 4.0001C20.2526 4.0001 19.8049 4.44781 19.8049 5.0001V7.50699C18.2497 4.81303 15.339 3 12.0049 3C7.03432 3 3.00488 7.02944 3.00488 12C3.00488 16.9706 7.03432 21 12.0049 21C15.8491 21 19.1304 18.5898 20.4201 15.1981C20.6481 14.5984 20.1711 14 19.5295 14H19.4607C19.0183 14 18.6352 14.294 18.4643 14.7021C17.407 17.2265 14.9131 19 12.0049 19Z" fill="black"/>
</svg>
