<svg width="24" height="24" viewBox="0 0 24 24" fill="none" xmlns="http://www.w3.org/2000/svg">
<path d="M8.00878 8.41426L5.42301 11H15.0088C18.8748 11 22.0088 14.134 22.0088 18C22.0088 18.5523 21.5611 19 21.0088 19C20.4565 19 20.0088 18.5523 20.0088 18C20.0088 15.2386 17.7702 13 15.0088 13H5.423L8.00878 15.5858C8.39931 15.9763 8.3993 16.6095 8.00878 17C7.61825 17.3905 6.98509 17.3905 6.59456 17L2.30168 12.7071C1.91116 12.3166 1.91116 11.6834 2.30168 11.2929L6.59456 7.00005C6.98509 6.60952 7.61825 6.60952 8.00878 7.00005C8.05759 7.04886 8.10031 7.10147 8.13692 7.15692C8.3932 7.54507 8.35049 8.07255 8.00878 8.41426Z" fill="black"/>
</svg>
