<?xml version="1.0" encoding="UTF-8" standalone="no"?>
<svg
   width="24"
   height="24"
   viewBox="0 0 24 24"
   fill="none"
   version="1.1"
   id="svg935"
   sodipodi:docname="save.svg"
   inkscape:version="1.2.2 (732a01da63, 2022-12-09)"
   xmlns:inkscape="http://www.inkscape.org/namespaces/inkscape"
   xmlns:sodipodi="http://sodipodi.sourceforge.net/DTD/sodipodi-0.dtd"
   xmlns="http://www.w3.org/2000/svg"
   xmlns:svg="http://www.w3.org/2000/svg">
  <defs
     id="defs939" />
  <sodipodi:namedview
     id="namedview937"
     pagecolor="#ffffff"
     bordercolor="#000000"
     borderopacity="0.25"
     inkscape:showpageshadow="2"
     inkscape:pageopacity="0.0"
     inkscape:pagecheckerboard="false"
     inkscape:deskcolor="#d1d1d1"
     showgrid="false"
     inkscape:zoom="24.660349"
     inkscape:cx="26.641959"
     inkscape:cy="12.530236"
     inkscape:window-width="1920"
     inkscape:window-height="1057"
     inkscape:window-x="1912"
     inkscape:window-y="-8"
     inkscape:window-maximized="1"
     inkscape:current-layer="svg935" />
  <path
     fill-rule="evenodd"
     clip-rule="evenodd"
     d="M3 19C3 20.1046 3.89543 21 5 21H19C20.1046 21 21 20.1046 21 19V8.82843C21 8.298 20.7893 7.78929 20.4142 7.41421L16.5858 3.58579C16.2107 3.21071 15.702 3 15.1716 3H5C3.89543 3 3 3.89543 3 5V19ZM5 5L5 19H7V16C7 14.8954 7.89543 14 9 14H15C16.1046 14 17 14.8954 17 16V19H19V8.82843L16 5.82843V8C16 9.10457 15.1046 10 14 10H9C7.89543 10 7 9.10457 7 8V5L5 5ZM9 5V8H14V5H9ZM15 19V16H9V19H15Z"
     fill="black"
     id="path933" />
</svg>
