<svg width="24" height="24" viewBox="0 0 24 24" fill="none" xmlns="http://www.w3.org/2000/svg">
<path fill-rule="evenodd" clip-rule="evenodd" d="M9 5C10.3062 5 11.4174 5.83477 11.8293 6.99992H20C20.5523 6.99992 21 7.44763 21 7.99992C21 8.5522 20.5523 8.99992 20 8.99992H11.8293C11.4175 10.1652 10.3062 11 9 11C7.69374 11 6.58248 10.1652 6.17067 8.99992H4C3.44772 8.99992 3 8.5522 3 7.99992C3 7.44763 3.44772 6.99992 4 6.99992H6.17073C6.58259 5.83477 7.69381 5 9 5ZM10 8C10 7.44772 9.55228 7 9 7C8.44771 7 8 7.44772 8 8C8 8.55229 8.44771 9 9 9C9.55228 9 10 8.55229 10 8Z" fill="black"/>
<path fill-rule="evenodd" clip-rule="evenodd" d="M15 13C16.3062 13 17.4174 13.8348 17.8293 14.9999H20C20.5523 14.9999 21 15.4476 21 15.9999C21 16.5522 20.5523 16.9999 20 16.9999H17.8293C17.4175 18.1652 16.3062 19 15 19C13.6937 19 12.5825 18.1652 12.1707 16.9999L4.00002 16.9999C3.44774 16.9999 3.00002 16.5522 3.00002 15.9999C3.00002 15.4476 3.44774 14.9999 4.00002 14.9999L12.1707 14.9999C12.5826 13.8348 13.6938 13 15 13ZM16 16C16 15.4477 15.5523 15 15 15C14.4477 15 14 15.4477 14 16C14 16.5523 14.4477 17 15 17C15.5523 17 16 16.5523 16 16Z" fill="black"/>
</svg>
