<svg width="24" height="24" viewBox="0 0 24 24" fill="none" xmlns="http://www.w3.org/2000/svg">
<path fill-rule="evenodd" clip-rule="evenodd" d="M1 13.9999C1 15.1045 1.89543 15.9999 3 15.9999H7L12.3492 20.585C12.9979 21.141 14 20.6801 14 19.8257V4.17417C14 3.31982 12.9979 2.85891 12.3492 3.41492L7 7.99995H3C1.89543 7.99995 1 8.89538 1 9.99995V13.9999ZM8.30158 14.4814C7.9391 14.1707 7.47742 13.9999 7 13.9999H3V9.99995H7C7.47742 9.99995 7.9391 9.82916 8.30158 9.51846L12 6.34839V17.6515L8.30158 14.4814Z" fill="black"/>
<path d="M19 13.4142L17.4142 14.9999C17.0237 15.3905 16.3905 15.3905 16 14.9999C15.6095 14.6094 15.6095 13.9762 16 13.5857L17.5858 11.9999L16 10.4142C15.6095 10.0236 15.6095 9.39048 16 8.99996C16.0488 8.95114 16.1014 8.90843 16.1569 8.87182C16.545 8.61554 17.0725 8.65825 17.4142 8.99996L19 10.5857L20.5858 8.99995C20.9763 8.60943 21.6095 8.60943 22 8.99995C22.0488 9.04877 22.0915 9.10137 22.1281 9.15682C22.3844 9.54497 22.3417 10.0725 22 10.4142L20.4142 11.9999L22 13.5857C22.3905 13.9763 22.3905 14.6094 22 14.9999C21.6095 15.3905 20.9763 15.3905 20.5858 14.9999L19 13.4142Z" fill="black"/>
</svg>
