<svg width="24" height="24" viewBox="0 0 24 24" fill="none" xmlns="http://www.w3.org/2000/svg">
<path d="M15.5867 9L12.0009 5.41421L8.41516 9C8.02463 9.39053 7.39147 9.39053 7.00094 9C6.81974 8.8188 6.72262 8.58536 6.70957 8.34816C6.7068 8.29781 6.70782 8.24728 6.71263 8.19704C6.73398 7.97394 6.83009 7.75664 7.00094 7.58579L11.2938 3.29289C11.4814 3.10536 11.7357 3 12.0009 3C12.2662 3 12.5205 3.10536 12.7081 3.29289L17.0009 7.58579C17.3915 7.97631 17.3915 8.60948 17.0009 9C16.6104 9.39053 15.9773 9.39053 15.5867 9Z" fill="black"/>
<path d="M12.0009 18.5858L8.41511 15C8.02459 14.6095 7.39143 14.6095 7.0009 15C6.61038 15.3905 6.61038 16.0237 7.0009 16.4142L11.2938 20.7071C11.4813 20.8946 11.7357 21 12.0009 21C12.2661 21 12.5205 20.8946 12.708 20.7071L17.0009 16.4142C17.3914 16.0237 17.3914 15.3905 17.0009 15C16.6104 14.6095 15.9772 14.6095 15.5867 15L12.0009 18.5858Z" fill="black"/>
</svg>
