<svg width="24" height="24" viewBox="0 0 24 24" fill="none" xmlns="http://www.w3.org/2000/svg">
<path d="M8.41511 4.00005L12.0009 7.58583L15.5867 4.00005C15.9772 3.60952 16.6104 3.60952 17.0009 4.00005C17.0497 4.04886 17.0924 4.10147 17.129 4.15692C17.3853 4.54507 17.3426 5.07255 17.0009 5.41426L12.708 9.70715C12.5205 9.89469 12.2661 10 12.0009 10C11.7357 10 11.4813 9.89469 11.2938 9.70715L7.0009 5.41426C6.61038 5.02374 6.61038 4.39057 7.0009 4.00005C7.04972 3.95123 7.10232 3.90852 7.15777 3.87191C7.54593 3.61563 8.07341 3.65834 8.41511 4.00005Z" fill="black"/>
<path d="M12.0009 16.4143L15.5867 20C15.9773 20.3906 16.6104 20.3906 17.0009 20C17.3915 19.6095 17.3915 18.9764 17.0009 18.5858L12.7081 14.2929C12.5205 14.1054 12.2662 14 12.0009 14C11.7357 14 11.4814 14.1054 11.2938 14.2929L7.00094 18.5858C6.81974 18.767 6.72262 19.0005 6.70957 19.2377C6.7068 19.288 6.70782 19.3386 6.71263 19.3888C6.73398 19.6119 6.83009 19.8292 7.00094 20C7.04976 20.0489 7.10237 20.0916 7.15782 20.1282C7.54597 20.3845 8.07345 20.3418 8.41516 20L12.0009 16.4143Z" fill="black"/>
</svg>
