<svg width="24" height="24" viewBox="0 0 24 24" fill="none" xmlns="http://www.w3.org/2000/svg">
<path fill-rule="evenodd" clip-rule="evenodd" d="M7.08562 21.4142L12.8395 15.6603C13.5199 15.8808 14.246 16 14.9998 16C18.8658 16 21.9998 12.866 21.9998 9C21.9998 7.9172 21.754 6.89181 21.315 5.97663C21.0472 5.41812 20.3149 5.35656 19.8769 5.79456L16.4214 9.25007L14.9998 9.00007L14.7498 7.5785L18.2054 4.12296C18.6434 3.68497 18.5818 2.95271 18.0233 2.68484C17.1081 2.24587 16.0827 2 14.9998 2C11.1338 2 7.99983 5.13401 7.99983 9C7.99983 9.75387 8.119 10.4799 8.33953 11.1603L2.58562 16.9142C2.21054 17.2893 1.97859 17.8026 2.07513 18.3241C2.41281 20.1487 3.85118 21.587 5.6757 21.9247C6.19727 22.0212 6.71054 21.7893 7.08562 21.4142ZM12.9677 6.53218C12.7371 6.76277 12.6335 7.09131 12.6899 7.41249L13.1515 10.0368C13.2243 10.4511 13.5488 10.7756 13.9631 10.8484L16.5874 11.31C16.9086 11.3664 17.2371 11.2628 17.4677 11.0322L19.9775 8.52245C19.9923 8.67943 19.9998 8.83871 19.9998 9C19.9998 11.7614 17.7613 14 14.9998 14C14.4579 14 13.9398 13.9145 13.4562 13.7577C12.7413 13.526 11.9568 13.7147 11.4253 14.2461L5.777 19.8944C4.97862 19.6538 4.34608 19.0212 4.10542 18.2228L9.75375 12.5745C10.2852 12.0431 10.4738 11.2586 10.2421 10.5436C10.0853 10.06 9.99983 9.54195 9.99983 9C9.99983 6.23858 12.2384 4 14.9998 4C15.1612 4 15.3205 4.00758 15.4775 4.02239L12.9677 6.53218ZM5.66394 20.0067C5.66394 20.0067 5.66455 20.0061 5.66589 20.0052C5.66463 20.0063 5.66394 20.0067 5.66394 20.0067ZM3.99312 18.3359C3.99312 18.3359 3.99358 18.3352 3.99466 18.3339C3.99368 18.3353 3.99312 18.3359 3.99312 18.3359Z" fill="black"/>
</svg>
