<svg width="24" height="24" viewBox="0 0 24 24" fill="none" xmlns="http://www.w3.org/2000/svg">
<path d="M9.50195 14C9.50195 14.5523 9.94967 15 10.502 15C11.0542 15 11.502 14.5523 11.502 14V11.5H14.002C14.5542 11.5 15.002 11.0523 15.002 10.5C15.002 9.94772 14.5542 9.5 14.002 9.5H11.502V7C11.502 6.44772 11.0542 6 10.502 6C9.94967 6 9.50195 6.44772 9.50195 7V9.5H7.00195C6.44967 9.5 6.00195 9.94772 6.00195 10.5C6.00195 11.0523 6.44967 11.5 7.00195 11.5H9.50195V14Z" fill="black"/>
<path fill-rule="evenodd" clip-rule="evenodd" d="M2.00195 10.5C2.00195 5.80558 5.80753 2 10.502 2C15.1964 2 19.002 5.80558 19.002 10.5C19.002 12.4865 18.3196 14.3149 17.1779 15.7618L22.002 20.5858C22.3925 20.9763 22.3925 21.6095 22.002 22C21.6114 22.3905 20.9783 22.3905 20.5877 22L15.7637 17.176C14.3169 18.3176 12.4884 19 10.502 19C5.80753 19 2.00195 15.1944 2.00195 10.5ZM10.502 4C6.9121 4 4.00195 6.91015 4.00195 10.5C4.00195 14.0899 6.9121 17 10.502 17C12.2972 17 13.9208 16.2736 15.0981 15.0962C16.2755 13.9188 17.002 12.2952 17.002 10.5C17.002 6.91015 14.0918 4 10.502 4Z" fill="black"/>
</svg>
